<svg xmlns="http://www.w3.org/2000/svg" xml:space="preserve" width="2000" height="250" data-id="lg_K8Bc0OyQLzFsTG0jIx" data-version="1" viewBox="0 0 2000 250"><g data-padding="20"><path fill="#c9efc7" d="M1077.175 191.402a9.063 9.063 0 1 0-1.274 18.08 9.063 9.063 0 0 0 1.274-18.08m0-27.635c-7.717 0-14.896 2.421-20.817 6.504a242.3 242.3 0 0 0-41.5-30.687c20.503-11.575 41.5-23.778 58.952-41.275 9.736-9.736 15.12-22.702 15.12-36.52s-5.384-26.74-15.12-36.52a51.14 51.14 0 0 0-36.52-15.12c-13.594 0-26.38 5.204-36.07 14.672-9.691-9.422-22.433-14.671-36.027-14.671-13.773 0-26.784 5.384-36.52 15.12a51.14 51.14 0 0 0-15.12 36.52c0 13.817 5.384 26.783 15.12 36.519 17.497 17.497 37.552 28.892 58.773 40.96l.404.18a219.7 219.7 0 0 0-36.162 25.708 37.91 37.91 0 0 0-48.992 4.172l-14.535 14.537a6.73 6.73 0 0 0 0 9.555l8.883 8.883a6.73 6.73 0 0 0 9.511-9.51l-4.128-4.173 9.78-9.78a24.54 24.54 0 0 1 34.95 0 24.675 24.675 0 0 1 0 34.994l-9.78 9.78-4.128-4.128a6.73 6.73 0 0 0-9.51 9.512l8.882 8.883a6.73 6.73 0 0 0 9.512 0l14.535-14.536a38.135 38.135 0 0 0 4.398-48.678c11.665-10.499 25.482-19.023 40.243-27.457a251.3 251.3 0 0 1 45.537 32.617 36.699 36.699 0 1 0 66.983 20.637 36.79 36.79 0 0 0-36.654-36.7m-75.821-32.032-7.179-4.128c-20.458-11.575-39.75-22.522-55.99-38.763a38 38 0 0 1 0-54.017 38.135 38.135 0 0 1 57.65 4.308 6.73 6.73 0 0 0 10.768 0q1.929-2.602 3.679-4.308a38.14 38.14 0 0 1 27.008-11.17c10.184 0 19.785 3.992 27.008 11.215a37.88 37.88 0 0 1 11.216 26.964c0 10.184-4.037 19.785-11.216 27.008-17.182 17.183-38.762 29.341-59.67 41.051Zm75.82 91.972a23.24 23.24 0 1 1 0-46.48 23.24 23.24 0 0 1 0 46.48"/><path fill="transparent" stroke="transparent" d="M876 0h248v250H876z"/></g></svg>