<svg xmlns="http://www.w3.org/2000/svg" xml:space="preserve" width="2000" height="1500" data-id="lg_K8Bc0OyQLzFsTG0jIx" data-version="1" viewBox="0 0 2000 1500"><path fill="#096a2e" stroke="transparent" d="M0 0h2000v1500H0z"/><g data-padding="20"><path fill="#c9efc7" d="M1347.286 1048.811a40.784 40.784 0 1 0-5.734 81.36 40.784 40.784 0 0 0 5.734-81.36m0-124.36c-34.726 0-67.029 10.896-93.676 29.269a1090 1090 0 0 0-186.748-138.092c92.26-52.086 186.748-107.002 265.283-185.74 43.811-43.811 68.038-102.157 68.038-164.337s-24.227-120.328-68.038-164.338a230.15 230.15 0 0 0-164.338-68.039c-61.176 0-118.714 23.416-162.32 66.02-43.608-42.397-100.944-66.02-162.12-66.02-61.978 0-120.526 24.227-164.338 68.039a230.15 230.15 0 0 0-68.038 164.338c0 62.18 24.227 120.526 68.038 164.338 78.738 78.737 168.984 130.016 264.477 184.324l1.82.81a988.8 988.8 0 0 0-162.729 115.682 170.6 170.6 0 0 0-220.465 18.775l-65.408 65.415a30.284 30.284 0 0 0 0 43.001l39.973 39.973a30.284 30.284 0 0 0 42.802-42.798l-18.575-18.779 44.01-44.01a110.436 110.436 0 0 1 157.276 0 111.04 111.04 0 0 1 0 157.474l-44.015 44.01-18.575-18.575a30.284 30.284 0 0 0-42.799 42.803l39.973 39.976a30.284 30.284 0 0 0 42.802 0l65.412-65.411a171.61 171.61 0 0 0 19.788-219.051c52.491-47.246 114.672-85.605 181.093-123.559a1130.7 1130.7 0 0 1 204.919 146.776 165.145 165.145 0 1 0 301.424 92.87 165.55 165.55 0 0 0-164.946-165.15m-341.194-144.148-32.303-18.575c-92.063-52.087-178.875-101.347-251.957-174.433a171.003 171.003 0 0 1 0-243.075 171.607 171.607 0 0 1 259.429 19.382 30.284 30.284 0 0 0 48.454 0q8.68-11.708 16.552-19.382a171.6 171.6 0 0 1 121.54-50.27c45.826 0 89.03 17.968 121.535 50.473a170.45 170.45 0 0 1 50.473 121.337c0 45.826-18.17 89.03-50.473 121.535-77.322 77.322-174.432 132.036-268.514 184.73Zm341.194 413.875a104.58 104.58 0 1 1 0-209.159 104.58 104.58 0 0 1 0 209.16"/><path fill="transparent" stroke="transparent" stroke-width="4.5" d="M442 187.5h1116v1125H442z"/></g></svg>